<svg width="20" height="20" viewBox="0 0 20 20" fill="none" xmlns="http://www.w3.org/2000/svg">
<path fill-rule="evenodd" clip-rule="evenodd" d="M6.66675 1.66669C7.12699 1.66669 7.50008 2.03978 7.50008 2.50002H12.5001C12.5001 2.03978 12.8732 1.66669 13.3334 1.66669C13.7937 1.66669 14.1667 2.03978 14.1667 2.50002C16.4679 2.50002 18.3334 4.3655 18.3334 6.66669V14.1667C18.3334 16.4679 16.4679 18.3334 14.1667 18.3334H5.83341C3.53223 18.3334 1.66675 16.4679 1.66675 14.1667V6.66669C1.66675 4.3655 3.53223 2.50002 5.83341 2.50002C5.83341 2.03978 6.20651 1.66669 6.66675 1.66669ZM5.00008 8.33335C5.00008 7.87312 5.37318 7.50002 5.83341 7.50002H14.1667C14.627 7.50002 15.0001 7.87312 15.0001 8.33335C15.0001 8.79359 14.627 9.16669 14.1667 9.16669H5.83341C5.37318 9.16669 5.00008 8.79359 5.00008 8.33335ZM12.5001 14.1667C12.5001 13.7064 12.8732 13.3334 13.3334 13.3334H14.1667C14.627 13.3334 15.0001 13.7064 15.0001 14.1667C15.0001 14.6269 14.627 15 14.1667 15H13.3334C12.8732 15 12.5001 14.6269 12.5001 14.1667Z" fill="white"/>
</svg>
