<svg width="20" height="20" viewBox="0 0 20 20" fill="none" xmlns="http://www.w3.org/2000/svg">
<path fill-rule="evenodd" clip-rule="evenodd" d="M9.99992 2.08335C9.99992 1.85324 9.81337 1.66669 9.58325 1.66669H6.66659C4.82564 1.66669 3.33325 3.15907 3.33325 5.00002V15C3.33325 16.841 4.82564 18.3334 6.66659 18.3334H13.3333C15.1742 18.3334 16.6666 16.841 16.6666 15V8.75002C16.6666 8.5199 16.48 8.33335 16.2499 8.33335H14.1666C11.8654 8.33335 9.99992 6.46787 9.99992 4.16669V2.08335ZM16.0161 6.66669C16.2932 6.66669 16.4923 6.39913 16.3592 6.15611C16.2462 5.94976 16.1037 5.75862 15.9344 5.58928L12.744 2.39892C12.5746 2.22957 12.3835 2.08703 12.1772 1.97402C11.9341 1.84093 11.6666 2.04006 11.6666 2.31714V4.16669C11.6666 5.5474 12.7859 6.66669 14.1666 6.66669H16.0161ZM9.99992 9.16669C10.4602 9.16669 10.8333 9.53978 10.8333 10V11.6667H12.4999C12.9602 11.6667 13.3333 12.0398 13.3333 12.5C13.3333 12.9603 12.9602 13.3334 12.4999 13.3334H10.8333V15C10.8333 15.4603 10.4602 15.8334 9.99992 15.8334C9.53968 15.8334 9.16659 15.4603 9.16659 15V13.3334H7.49992C7.03968 13.3334 6.66659 12.9603 6.66659 12.5C6.66659 12.0398 7.03968 11.6667 7.49992 11.6667H9.16659V10C9.16659 9.53978 9.53968 9.16669 9.99992 9.16669Z" fill="white" fill-opacity="0.25"/>
</svg>
