<svg width="20" height="20" viewBox="0 0 20 20" fill="none" xmlns="http://www.w3.org/2000/svg">
<path fill-rule="evenodd" clip-rule="evenodd" d="M9.99984 8.33335C9.07936 8.33335 8.33317 9.07955 8.33317 10C8.33317 10.9205 9.07936 11.6667 9.99984 11.6667C10.9203 11.6667 11.6665 10.9205 11.6665 10C11.6665 9.07955 10.9203 8.33335 9.99984 8.33335ZM6.6665 10C6.6665 8.15907 8.15889 6.66669 9.99984 6.66669C11.8408 6.66669 13.3332 8.15907 13.3332 10C13.3332 11.841 11.8408 13.3334 9.99984 13.3334C8.15889 13.3334 6.6665 11.841 6.6665 10Z" fill="#5E5E5E" fill-opacity="0.8"/>
<path fill-rule="evenodd" clip-rule="evenodd" d="M7.27463 3.78422C7.27463 2.61474 8.22268 1.66669 9.39216 1.66669H10.6077C11.7772 1.66669 12.7252 2.61474 12.7252 3.78422C12.7252 3.9537 12.8421 4.17983 13.1215 4.33153C13.2074 4.37822 13.2922 4.42677 13.3757 4.47712C13.6543 4.64507 13.9159 4.63429 14.0694 4.54643C15.0892 3.96291 16.3888 4.31112 16.9803 5.32637L17.5673 6.33399C18.1599 7.35119 17.8102 8.6564 16.7884 9.24104C16.6402 9.3258 16.501 9.54139 16.5077 9.86221C16.5087 9.90804 16.5092 9.95398 16.5092 10C16.5092 10.0461 16.5087 10.092 16.5077 10.1379C16.501 10.4587 16.6402 10.6743 16.7884 10.759C17.8102 11.3436 18.1599 12.6488 17.5673 13.666L16.9803 14.6737C16.3888 15.6889 15.0892 16.0371 14.0694 15.4536C13.9158 15.3658 13.6543 15.355 13.3757 15.5229C13.2922 15.5733 13.2074 15.6218 13.1215 15.6685C12.8421 15.8202 12.7252 16.0463 12.7252 16.2158C12.7252 17.3853 11.7772 18.3334 10.6077 18.3334H9.39216C8.22268 18.3334 7.27463 17.3853 7.27463 16.2158C7.27463 16.0463 7.15775 15.8202 6.87841 15.6685C6.79245 15.6218 6.70768 15.5733 6.62415 15.5229C6.34556 15.355 6.08403 15.3658 5.93048 15.4536C4.91066 16.0371 3.61108 15.6889 3.01963 14.6737L2.43259 13.666C1.84 12.6488 2.18972 11.3436 3.2115 10.759C3.35964 10.6742 3.49892 10.4587 3.49214 10.1379C3.49117 10.092 3.49068 10.0461 3.49068 10C3.49068 9.95398 3.49117 9.90805 3.49214 9.86222C3.49892 9.5414 3.35963 9.32581 3.21149 9.24105C2.18969 8.65641 1.83997 7.35119 2.43257 6.33399L3.01959 5.32637C3.61105 4.31113 4.91063 3.96292 5.93046 4.54644C6.08401 4.6343 6.34554 4.64507 6.62414 4.47713C6.70768 4.42677 6.79245 4.37822 6.87841 4.33153C7.15775 4.17983 7.27463 3.9537 7.27463 3.78422ZM9.39216 3.33335C9.14316 3.33335 8.9413 3.53521 8.9413 3.78422C8.9413 4.70592 8.3534 5.42707 7.67384 5.79614C7.60988 5.83088 7.54678 5.86701 7.4846 5.90449C6.82172 6.30411 5.90337 6.45114 5.10275 5.99305C4.87745 5.86414 4.59036 5.94106 4.45969 6.16535L3.87268 7.17297C3.74599 7.39042 3.82075 7.66945 4.03919 7.79444C4.84112 8.25328 5.17479 9.12392 5.15843 9.89746C5.15771 9.93155 5.15735 9.96573 5.15735 10C5.15735 10.0343 5.15771 10.0685 5.15843 10.1026C5.17479 10.8761 4.84113 11.7468 4.03921 12.2056C3.82078 12.3306 3.74602 12.6096 3.8727 12.8271L4.45973 13.8347C4.59039 14.059 4.87748 14.1359 5.10278 14.007C5.90339 13.5489 6.82173 13.6959 7.48461 14.0955C7.54679 14.133 7.60988 14.1692 7.67384 14.2039C8.3534 14.573 8.9413 15.2941 8.9413 16.2158C8.9413 16.4648 9.14316 16.6667 9.39216 16.6667H10.6077C10.8567 16.6667 11.0586 16.4648 11.0586 16.2158C11.0586 15.2941 11.6465 14.573 12.326 14.2039C12.39 14.1692 12.4531 14.133 12.5153 14.0956C13.1781 13.6959 14.0965 13.5489 14.8971 14.007C15.1224 14.1359 15.4095 14.059 15.5401 13.8347L16.1272 12.8271C16.2539 12.6096 16.1791 12.3306 15.9607 12.2056C15.1587 11.7468 14.8251 10.8761 14.8414 10.1026C14.8422 10.0685 14.8425 10.0343 14.8425 10C14.8425 9.96573 14.8422 9.93154 14.8414 9.89745C14.8251 9.12391 15.1588 8.25327 15.9607 7.79443C16.1791 7.66945 16.2539 7.39042 16.1272 7.17296L15.5402 6.16534C15.4095 5.94106 15.1224 5.86413 14.8971 5.99304C14.0965 6.45113 13.1782 6.3041 12.5153 5.90449C12.4531 5.86701 12.39 5.83088 12.326 5.79614C11.6465 5.42707 11.0586 4.70592 11.0586 3.78422C11.0586 3.53521 10.8567 3.33335 10.6077 3.33335H9.39216Z" fill="#5E5E5E" fill-opacity="0.8"/>
</svg>
